<svg xmlns="http://www.w3.org/2000/svg" viewBox="0 0 512 512" width="512" height="512">
  <!-- Fundo verde PAGORA -->
  <rect width="512" height="512" fill="#22E3A3"/>

  <!-- Pin preto -->
  <path
    d="M256 92c-67 0-121 50-121 116 0 36 17 71 47 100l59 56c8 8 22 8 30 0l59-56c30-29 47-64 47-100 0-66-54-116-121-116z"
    fill="#070E1A"
  />

  <!-- Recorte interno do pin (formato gota invertida) -->
  <path
    d="M256 158c-31 0-56 24-56 55 0 22 14 41 33 49 5 2 11 2 16 0l7-3 7 3c5 2 11 2 16 0 19-8 33-27 33-49 0-31-25-55-56-55z"
    fill="#22E3A3"
  />

  <!-- Bolinha branca no rabicho do pin -->
  <circle cx="338" cy="345" r="11" fill="#FFFFFF"/>

  <!-- Sombra/elipse do chão -->
  <ellipse cx="256" cy="430" rx="60" ry="14" fill="none" stroke="#FFFFFF" stroke-width="6"/>
</svg>
